{
  "accessors": [
    {
      "bufferView": 2,
      "componentType": 5126,
      "count": 65532,
      "max": [
        0.9501760005950928,
        0.28968000411987305,
        0.6574580073356628
      ],
      "min": [
        -0.9516159892082214,
        -0.30070799589157104,
        -0.6538410186767578
      ],
      "type": "VEC3"
    },
    {
      "bufferView": 2,
      "byteOffset": 786384,
      "componentType": 5126,
      "count": 65532,
      "max": [
        0.9999245405197144,
        0.9999898672103882,
        0.9999788999557495
      ],
      "min": [
        -0.9999657869338989,
        -0.999992847442627,
        -0.9999762773513794
      ],
      "type": "VEC3"
    },
    {
      "bufferView": 3,
      "componentType": 5126,
      "count": 65532,
      "max": [
        0.9997732043266296,
        0.9999598860740662,
        0.9999592304229736,
        1.0
      ],
      "min": [
        -0.9998041391372681,
        -0.9999498128890991,
        -0.999960720539093,
        -1.0
      ],
      "type": "VEC4"
    },
    {
      "bufferView": 1,
      "componentType": 5126,
      "count": 65532,
      "max": [
        0.9963030219078064,
        0.994733989238739
      ],
      "min": [
        0.001563000027090311,
        2.4974346160888672e-05
      ],
      "type": "VEC2"
    },
    {
      "bufferView": 1,
      "byteOffset": 524256,
      "componentType": 5126,
      "count": 65532,
      "max": [
        0.9963030219078064,
        0.994733989238739
      ],
      "min": [
        0.001563000027090311,
        2.4974346160888672e-05
      ],
      "type": "VEC2"
    },
    {
      "bufferView": 1,
      "byteOffset": 1048512,
      "componentType": 5126,
      "count": 65532,
      "max": [
        0.9963030219078064,
        0.994733989238739
      ],
      "min": [
        0.001563000027090311,
        2.4974346160888672e-05
      ],
      "type": "VEC2"
    },
    {
      "bufferView": 1,
      "byteOffset": 1572768,
      "componentType": 5126,
      "count": 65532,
      "max": [
        0.9963030219078064,
        0.994733989238739
      ],
      "min": [
        0.001563000027090311,
        2.4974346160888672e-05
      ],
      "type": "VEC2"
    },
    {
      "bufferView": 0,
      "componentType": 5125,
      "count": 347037,
      "type": "SCALAR"
    },
    {
      "bufferView": 2,
      "byteOffset": 1572768,
      "componentType": 5126,
      "count": 65532,
      "max": [
        0.9190629720687866,
        0.29875800013542175,
        0.6706699728965759
      ],
      "min": [
        -0.9506940245628357,
        -0.30070799589157104,
        -0.6594480276107788
      ],
      "type": "VEC3"
    },
    {
      "bufferView": 2,
      "byteOffset": 2359152,
      "componentType": 5126,
      "count": 65532,
      "max": [
        0.9998347759246826,
        0.9999889135360718,
        0.9999133348464966
      ],
      "min": [
        -0.9999774098396301,
        -0.999980092048645,
        -0.9996486902236938
      ],
      "type": "VEC3"
    },
    {
      "bufferView": 3,
      "byteOffset": 1048512,
      "componentType": 5126,
      "count": 65532,
      "max": [
        0.9999155402183533,
        0.9997636675834656,
        0.9999849200248718,
        1.0
      ],
      "min": [
        -0.9999521970748901,
        -0.9999964237213135,
        -0.999985933303833,
        -1.0
      ],
      "type": "VEC4"
    },
    {
      "bufferView": 1,
      "byteOffset": 2097024,
      "componentType": 5126,
      "count": 65532,
      "max": [
        0.9969189763069153,
        0.9999960064888
      ],
      "min": [
        0.00010900000052060932,
        4.8995018005371094e-05
      ],
      "type": "VEC2"
    },
    {
      "bufferView": 1,
      "byteOffset": 2621280,
      "componentType": 5126,
      "count": 65532,
      "max": [
        0.9969189763069153,
        0.9999960064888
      ],
      "min": [
        0.00010900000052060932,
        4.8995018005371094e-05
      ],
      "type": "VEC2"
    },
    {
      "bufferView": 1,
      "byteOffset": 3145536,
      "componentType": 5126,
      "count": 65532,
      "max": [
        0.9969189763069153,
        0.9999960064888
      ],
      "min": [
        0.00010900000052060932,
        4.8995018005371094e-05
      ],
      "type": "VEC2"
    },
    {
      "bufferView": 1,
      "byteOffset": 3669792,
      "componentType": 5126,
      "count": 65532,
      "max": [
        0.9969189763069153,
        0.9999960064888
      ],
      "min": [
        0.00010900000052060932,
        4.8995018005371094e-05
      ],
      "type": "VEC2"
    },
    {
      "bufferView": 0,
      "byteOffset": 1388148,
      "componentType": 5125,
      "count": 337761,
      "type": "SCALAR"
    },
    {
      "bufferView": 2,
      "byteOffset": 3145536,
      "componentType": 5126,
      "count": 46580,
      "max": [
        0.9519879817962646,
        0.29792898893356323,
        0.5086069703102112
      ],
      "min": [
        -0.9510260224342346,
        -0.30059200525283813,
        -0.6588619947433472
      ],
      "type": "VEC3"
    },
    {
      "bufferView": 2,
      "byteOffset": 3704496,
      "componentType": 5126,
      "count": 46580,
      "max": [
        0.999976396560669,
        0.9999961853027344,
        0.9993691444396973
      ],
      "min": [
        -0.9999774098396301,
        -0.9998962879180908,
        -0.999976396560669
      ],
      "type": "VEC3"
    },
    {
      "bufferView": 3,
      "byteOffset": 2097024,
      "componentType": 5126,
      "count": 46580,
      "max": [
        0.9999967217445374,
        0.9995378851890564,
        0.9999892711639404,
        1.0
      ],
      "min": [
        -0.9998624324798584,
        -0.9999391436576843,
        -0.9998940229415894,
        -1.0
      ],
      "type": "VEC4"
    },
    {
      "bufferView": 1,
      "byteOffset": 4194048,
      "componentType": 5126,
      "count": 46580,
      "max": [
        0.9977279901504517,
        0.9999790191650391
      ],
      "min": [
        9.999999747378752e-06,
        1.5974044799804688e-05
      ],
      "type": "VEC2"
    },
    {
      "bufferView": 1,
      "byteOffset": 4566688,
      "componentType": 5126,
      "count": 46580,
      "max": [
        0.9977279901504517,
        0.9999790191650391
      ],
      "min": [
        9.999999747378752e-06,
        1.5974044799804688e-05
      ],
      "type": "VEC2"
    },
    {
      "bufferView": 1,
      "byteOffset": 4939328,
      "componentType": 5126,
      "count": 46580,
      "max": [
        0.9977279901504517,
        0.9999790191650391
      ],
      "min": [
        9.999999747378752e-06,
        1.5974044799804688e-05
      ],
      "type": "VEC2"
    },
    {
      "bufferView": 1,
      "byteOffset": 5311968,
      "componentType": 5126,
      "count": 46580,
      "max": [
        0.9977279901504517,
        0.9999790191650391
      ],
      "min": [
        9.999999747378752e-06,
        1.5974044799804688e-05
      ],
      "type": "VEC2"
    },
    {
      "bufferView": 0,
      "byteOffset": 2739192,
      "componentType": 5125,
      "count": 213702,
      "type": "SCALAR"
    }
  ],
  "asset": {
    "extras": {
      "author": "caramelll (https://sketchfab.com/caramelll)",
      "license": "SKETCHFAB Standard (https://sketchfab.com/licenses)",
      "source": "https://sketchfab.com/3d-models/coffe-beans-a58bd496182a47fd8a0331d2bc86872e",
      "title": "coffe beans"
    },
    "generator": "Sketchfab-16.74.0",
    "version": "2.0"
  },
  "bufferViews": [
    {
      "buffer": 0,
      "byteLength": 3594000,
      "name": "floatBufferViews",
      "target": 34963
    },
    {
      "buffer": 0,
      "byteLength": 5684608,
      "byteOffset": 3594000,
      "byteStride": 8,
      "name": "floatBufferViews",
      "target": 34962
    },
    {
      "buffer": 0,
      "byteLength": 4263456,
      "byteOffset": 9278608,
      "byteStride": 12,
      "name": "floatBufferViews",
      "target": 34962
    },
    {
      "buffer": 0,
      "byteLength": 2842304,
      "byteOffset": 13542064,
      "byteStride": 16,
      "name": "floatBufferViews",
      "target": 34962
    }
  ],
  "buffers": [
    {
      "byteLength": 16384368,
      "uri": "scene.bin"
    }
  ],
  "images": [
    {
      "uri": "textures/material_0_baseColor.jpeg"
    },
    {
      "uri": "textures/material_0_metallicRoughness.png"
    },
    {
      "uri": "textures/material_0_normal.jpeg"
    }
  ],
  "materials": [
    {
      "doubleSided": true,
      "name": "material_0",
      "normalTexture": {
        "index": 2,
        "texCoord": 2
      },
      "pbrMetallicRoughness": {
        "baseColorTexture": {
          "index": 0
        },
        "metallicRoughnessTexture": {
          "index": 1,
          "texCoord": 1
        }
      }
    }
  ],
  "meshes": [
    {
      "name": "Object_0",
      "primitives": [
        {
          "attributes": {
            "NORMAL": 1,
            "POSITION": 0,
            "TANGENT": 2,
            "TEXCOORD_0": 3,
            "TEXCOORD_1": 4,
            "TEXCOORD_2": 5,
            "TEXCOORD_3": 6
          },
          "indices": 7,
          "material": 0,
          "mode": 4
        }
      ]
    },
    {
      "name": "Object_1",
      "primitives": [
        {
          "attributes": {
            "NORMAL": 9,
            "POSITION": 8,
            "TANGENT": 10,
            "TEXCOORD_0": 11,
            "TEXCOORD_1": 12,
            "TEXCOORD_2": 13,
            "TEXCOORD_3": 14
          },
          "indices": 15,
          "material": 0,
          "mode": 4
        }
      ]
    },
    {
      "name": "Object_2",
      "primitives": [
        {
          "attributes": {
            "NORMAL": 17,
            "POSITION": 16,
            "TANGENT": 18,
            "TEXCOORD_0": 19,
            "TEXCOORD_1": 20,
            "TEXCOORD_2": 21,
            "TEXCOORD_3": 22
          },
          "indices": 23,
          "material": 0,
          "mode": 4
        }
      ]
    }
  ],
  "nodes": [
    {
      "children": [
        1
      ],
      "matrix": [
        1.0,
        0.0,
        0.0,
        0.0,
        0.0,
        2.220446049250313e-16,
        -1.0,
        0.0,
        0.0,
        1.0,
        2.220446049250313e-16,
        0.0,
        0.0,
        0.0,
        0.0,
        1.0
      ],
      "name": "Sketchfab_model"
    },
    {
      "children": [
        2
      ],
      "name": "root"
    },
    {
      "children": [
        3
      ],
      "matrix": [
        1.0,
        0.0,
        0.0,
        0.0,
        0.0,
        2.220446049250313e-16,
        1.0,
        0.0,
        0.0,
        -1.0,
        2.220446049250313e-16,
        0.0,
        0.0,
        0.0,
        0.0,
        1.0
      ],
      "name": "GLTF_SceneRootNode"
    },
    {
      "children": [
        4,
        5,
        6
      ],
      "name": "_0"
    },
    {
      "mesh": 0,
      "name": "Object_4"
    },
    {
      "mesh": 1,
      "name": "Object_5"
    },
    {
      "mesh": 2,
      "name": "Object_6"
    }
  ],
  "samplers": [
    {
      "magFilter": 9729,
      "minFilter": 9987,
      "wrapS": 10497,
      "wrapT": 10497
    }
  ],
  "scene": 0,
  "scenes": [
    {
      "name": "Sketchfab_Scene",
      "nodes": [
        0
      ]
    }
  ],
  "textures": [
    {
      "sampler": 0,
      "source": 0
    },
    {
      "sampler": 0,
      "source": 1
    },
    {
      "sampler": 0,
      "source": 2
    }
  ]
}
