{
  "accessors": [
    {
      "bufferView": 2,
      "componentType": 5126,
      "count": 32686,
      "max": [
        0.40665701031684875,
        1.0538549423217773,
        0.41024699807167053
      ],
      "min": [
        -0.412665992975235,
        -0.0,
        -0.407694011926651
      ],
      "type": "VEC3"
    },
    {
      "bufferView": 2,
      "byteOffset": 392232,
      "componentType": 5126,
      "count": 32686,
      "max": [
        0.9999199509620667,
        0.9999547004699707,
        0.9999763369560242
      ],
      "min": [
        -0.999736487865448,
        -1.0,
        -0.9996747970581055
      ],
      "type": "VEC3"
    },
    {
      "bufferView": 3,
      "componentType": 5126,
      "count": 32686,
      "max": [
        0.9999868273735046,
        0.9995898604393005,
        0.9999998807907104,
        1.0
      ],
      "min": [
        -0.9999977350234985,
        -0.9999870657920837,
        -0.9999291896820068,
        -1.0
      ],
      "type": "VEC4"
    },
    {
      "bufferView": 1,
      "componentType": 5126,
      "count": 32686,
      "max": [
        0.9995909929275513,
        0.9995920062065125
      ],
      "min": [
        0.0004090000002179295,
        0.0004079999926034361
      ],
      "type": "VEC2"
    },
    {
      "bufferView": 1,
      "byteOffset": 261488,
      "componentType": 5126,
      "count": 32686,
      "max": [
        0.9995909929275513,
        0.9995920062065125
      ],
      "min": [
        0.0004090000002179295,
        0.0004079999926034361
      ],
      "type": "VEC2"
    },
    {
      "bufferView": 1,
      "byteOffset": 522976,
      "componentType": 5126,
      "count": 32686,
      "max": [
        0.9995909929275513,
        0.9995920062065125
      ],
      "min": [
        0.0004090000002179295,
        0.0004079999926034361
      ],
      "type": "VEC2"
    },
    {
      "bufferView": 0,
      "componentType": 5125,
      "count": 150000,
      "type": "SCALAR"
    }
  ],
  "asset": {
    "extras": {
      "author": "weeerester (https://sketchfab.com/weeerester)",
      "license": "CC-BY-4.0 (http://creativecommons.org/licenses/by/4.0/)",
      "source": "https://sketchfab.com/3d-models/cupcake-cc64f5070b4d49ac8560956980cc5dae",
      "title": "Cupcake"
    },
    "generator": "Sketchfab-17.8.0",
    "version": "2.0"
  },
  "bufferViews": [
    {
      "buffer": 0,
      "byteLength": 600000,
      "name": "floatBufferViews",
      "target": 34963
    },
    {
      "buffer": 0,
      "byteLength": 784464,
      "byteOffset": 600000,
      "byteStride": 8,
      "name": "floatBufferViews",
      "target": 34962
    },
    {
      "buffer": 0,
      "byteLength": 784464,
      "byteOffset": 1384464,
      "byteStride": 12,
      "name": "floatBufferViews",
      "target": 34962
    },
    {
      "buffer": 0,
      "byteLength": 522976,
      "byteOffset": 2168928,
      "byteStride": 16,
      "name": "floatBufferViews",
      "target": 34962
    }
  ],
  "buffers": [
    {
      "byteLength": 2691904,
      "uri": "scene.bin"
    }
  ],
  "images": [
    {
      "uri": "textures/Material.002_baseColor.png"
    },
    {
      "uri": "textures/Material.002_metallicRoughness.png"
    },
    {
      "uri": "textures/Material.002_normal.png"
    }
  ],
  "materials": [
    {
      "doubleSided": true,
      "name": "Material.002",
      "normalTexture": {
        "index": 2
      },
      "pbrMetallicRoughness": {
        "baseColorTexture": {
          "index": 0
        },
        "metallicRoughnessTexture": {
          "index": 1
        }
      }
    }
  ],
  "meshes": [
    {
      "name": "node_0_Material.002_0",
      "primitives": [
        {
          "attributes": {
            "NORMAL": 1,
            "POSITION": 0,
            "TANGENT": 2,
            "TEXCOORD_0": 3,
            "TEXCOORD_1": 4,
            "TEXCOORD_2": 5
          },
          "indices": 6,
          "material": 0,
          "mode": 4
        }
      ]
    }
  ],
  "nodes": [
    {
      "children": [
        1
      ],
      "matrix": [
        1.0,
        0.0,
        0.0,
        0.0,
        0.0,
        2.220446049250313e-16,
        -1.0,
        0.0,
        0.0,
        1.0,
        2.220446049250313e-16,
        0.0,
        0.0,
        0.0,
        0.0,
        1.0
      ],
      "name": "Sketchfab_model"
    },
    {
      "children": [
        2
      ],
      "matrix": [
        0.009999999776482582,
        0.0,
        0.0,
        0.0,
        0.0,
        0.0,
        0.009999999776482582,
        0.0,
        0.0,
        -0.009999999776482582,
        0.0,
        0.0,
        0.0,
        0.0,
        0.0,
        1.0
      ],
      "name": "b49e590c3dbc49a5938dd69995adf7a3.fbx"
    },
    {
      "children": [
        3
      ],
      "name": "RootNode"
    },
    {
      "children": [
        4
      ],
      "matrix": [
        100.0,
        0.0,
        0.0,
        0.0,
        0.0,
        99.99999999999972,
        -7.5497901264043296e-06,
        0.0,
        0.0,
        7.5497901264043296e-06,
        99.99999999999972,
        0.0,
        0.0,
        0.0,
        0.0,
        1.0
      ],
      "name": "node_0"
    },
    {
      "mesh": 0,
      "name": "node_0_Material.002_0"
    }
  ],
  "samplers": [
    {
      "magFilter": 9729,
      "minFilter": 9987,
      "wrapS": 10497,
      "wrapT": 10497
    }
  ],
  "scene": 0,
  "scenes": [
    {
      "name": "Sketchfab_Scene",
      "nodes": [
        0
      ]
    }
  ],
  "textures": [
    {
      "sampler": 0,
      "source": 0
    },
    {
      "sampler": 0,
      "source": 1
    },
    {
      "sampler": 0,
      "source": 2
    }
  ]
}
