{
  "accessors": [
    {
      "bufferView": 2,
      "componentType": 5126,
      "count": 706,
      "max": [
        0.75,
        0.75,
        0.03200000151991844
      ],
      "min": [
        -0.75,
        -0.75,
        -0.032000064849853516
      ],
      "type": "VEC3"
    },
    {
      "bufferView": 2,
      "byteOffset": 8472,
      "componentType": 5126,
      "count": 706,
      "max": [
        1.0,
        1.0,
        1.0
      ],
      "min": [
        -1.0,
        -1.0,
        -1.0
      ],
      "type": "VEC3"
    },
    {
      "bufferView": 1,
      "componentType": 5126,
      "count": 706,
      "max": [
        1.0,
        1.0
      ],
      "min": [
        0.0,
        0.0
      ],
      "type": "VEC2"
    },
    {
      "bufferView": 0,
      "componentType": 5125,
      "count": 3264,
      "type": "SCALAR"
    }
  ],
  "asset": {
    "extras": {
      "author": "Mmmighty_Atom (https://sketchfab.com/Mmmighty_Atom)",
      "license": "CC-BY-4.0 (http://creativecommons.org/licenses/by/4.0/)",
      "source": "https://sketchfab.com/3d-models/pizzadoughflat-a8137aa1f8964732b25e961b789fddf4",
      "title": "Pizzadoughflat"
    },
    "generator": "Sketchfab-16.33.0",
    "version": "2.0"
  },
  "bufferViews": [
    {
      "buffer": 0,
      "byteLength": 13056,
      "name": "floatBufferViews",
      "target": 34963
    },
    {
      "buffer": 0,
      "byteLength": 5648,
      "byteOffset": 13056,
      "byteStride": 8,
      "name": "floatBufferViews",
      "target": 34962
    },
    {
      "buffer": 0,
      "byteLength": 16944,
      "byteOffset": 18704,
      "byteStride": 12,
      "name": "floatBufferViews",
      "target": 34962
    }
  ],
  "buffers": [
    {
      "byteLength": 35648,
      "uri": "scene.bin"
    }
  ],
  "materials": [
    {
      "name": "SpaceObjectClone_DDD4BEFF",
      "pbrMetallicRoughness": {
        "baseColorFactor": [
          0.866667,
          0.831373,
          0.745098,
          1.0
        ],
        "metallicFactor": 0.0
      }
    }
  ],
  "meshes": [
    {
      "name": "Object_0",
      "primitives": [
        {
          "attributes": {
            "NORMAL": 1,
            "POSITION": 0,
            "TEXCOORD_0": 2
          },
          "indices": 3,
          "material": 0,
          "mode": 4
        }
      ]
    }
  ],
  "nodes": [
    {
      "children": [
        1
      ],
      "matrix": [
        1.0,
        0.0,
        0.0,
        0.0,
        0.0,
        2.220446049250313e-16,
        -1.0,
        0.0,
        0.0,
        1.0,
        2.220446049250313e-16,
        0.0,
        0.0,
        0.0,
        0.0,
        1.0
      ],
      "name": "Sketchfab_model"
    },
    {
      "children": [
        2
      ],
      "name": "root"
    },
    {
      "children": [
        3
      ],
      "matrix": [
        1.0,
        0.0,
        0.0,
        0.0,
        0.0,
        2.220446049250313e-16,
        1.0,
        0.0,
        0.0,
        -1.0,
        2.220446049250313e-16,
        0.0,
        0.0,
        0.0,
        0.0,
        1.0
      ],
      "name": "GLTF_SceneRootNode"
    },
    {
      "children": [
        4
      ],
      "name": "Space Root_0"
    },
    {
      "children": [
        5
      ],
      "name": "Stage 1_4"
    },
    {
      "children": [
        6
      ],
      "matrix": [
        -0.02418299620055189,
        -0.009377638289399018,
        0.19810941920559202,
        0.0,
        -0.19832701226520427,
        0.0024785553409829774,
        -0.024092233512910736,
        0.0,
        -0.0013268093729782958,
        -0.1995646256764118,
        -0.009608483577466171,
        0.0,
        0.1491401195526123,
        0.011784553527832031,
        0.8429771661758423,
        1.0
      ],
      "name": "Cylinder_5"
    },
    {
      "mesh": 0,
      "name": "Object_6"
    }
  ],
  "scene": 0,
  "scenes": [
    {
      "name": "Sketchfab_Scene",
      "nodes": [
        0
      ]
    }
  ]
}
