{
  "accessors": [
    {
      "bufferView": 2,
      "componentType": 5126,
      "count": 10882,
      "max": [
        1.001338005065918,
        0.32065099477767944,
        0.42795100808143616
      ],
      "min": [
        -1.0027799606323242,
        -0.32137399911880493,
        -0.4188329875469208
      ],
      "type": "VEC3"
    },
    {
      "bufferView": 2,
      "byteOffset": 130584,
      "componentType": 5126,
      "count": 10882,
      "max": [
        0.9997305274009705,
        0.999942421913147,
        0.9999985694885254
      ],
      "min": [
        -0.9996176362037659,
        -0.9999797344207764,
        -0.9999019503593445
      ],
      "type": "VEC3"
    },
    {
      "bufferView": 3,
      "componentType": 5126,
      "count": 10882,
      "max": [
        0.9580435752868652,
        0.9997239112854004,
        0.9999581575393677,
        -1.0
      ],
      "min": [
        -0.9891073703765869,
        -0.9984565377235413,
        -0.9722734093666077,
        -1.0
      ],
      "type": "VEC4"
    },
    {
      "bufferView": 1,
      "componentType": 5126,
      "count": 10882,
      "max": [
        0.9766099452972412,
        0.9997372627258301
      ],
      "min": [
        0.00026274562696926296,
        0.0002625584602355957
      ],
      "type": "VEC2"
    },
    {
      "bufferView": 1,
      "byteOffset": 87056,
      "componentType": 5126,
      "count": 10882,
      "max": [
        0.9766099452972412,
        0.9997372627258301
      ],
      "min": [
        0.00026274562696926296,
        0.0002625584602355957
      ],
      "type": "VEC2"
    },
    {
      "bufferView": 1,
      "byteOffset": 174112,
      "componentType": 5126,
      "count": 10882,
      "max": [
        0.9766099452972412,
        0.9997372627258301
      ],
      "min": [
        0.00026274562696926296,
        0.0002625584602355957
      ],
      "type": "VEC2"
    },
    {
      "bufferView": 1,
      "byteOffset": 261168,
      "componentType": 5126,
      "count": 10882,
      "max": [
        0.9766099452972412,
        0.9997372627258301
      ],
      "min": [
        0.00026274562696926296,
        0.0002625584602355957
      ],
      "type": "VEC2"
    },
    {
      "bufferView": 0,
      "componentType": 5125,
      "count": 55782,
      "type": "SCALAR"
    }
  ],
  "asset": {
    "extras": {
      "author": "movsummemmedzade3 (https://sketchfab.com/movsummemmedzade3)",
      "license": "CC-BY-4.0 (http://creativecommons.org/licenses/by/4.0/)",
      "source": "https://sketchfab.com/3d-models/coffe-bean-bba21b0e03d4459698b315772d6afbb5",
      "title": "coffe bean"
    },
    "generator": "Sketchfab-16.74.0",
    "version": "2.0"
  },
  "bufferViews": [
    {
      "buffer": 0,
      "byteLength": 223128,
      "name": "floatBufferViews",
      "target": 34963
    },
    {
      "buffer": 0,
      "byteLength": 348224,
      "byteOffset": 223128,
      "byteStride": 8,
      "name": "floatBufferViews",
      "target": 34962
    },
    {
      "buffer": 0,
      "byteLength": 261168,
      "byteOffset": 571352,
      "byteStride": 12,
      "name": "floatBufferViews",
      "target": 34962
    },
    {
      "buffer": 0,
      "byteLength": 174112,
      "byteOffset": 832520,
      "byteStride": 16,
      "name": "floatBufferViews",
      "target": 34962
    }
  ],
  "buffers": [
    {
      "byteLength": 1006632,
      "uri": "scene.bin"
    }
  ],
  "images": [
    {
      "uri": "textures/Material_0.001_baseColor.jpeg"
    },
    {
      "uri": "textures/Material_0.001_metallicRoughness.png"
    },
    {
      "uri": "textures/Material_0.001_normal.jpeg"
    }
  ],
  "materials": [
    {
      "doubleSided": true,
      "name": "Material_0.001",
      "normalTexture": {
        "index": 2
      },
      "pbrMetallicRoughness": {
        "baseColorTexture": {
          "index": 0
        },
        "metallicRoughnessTexture": {
          "index": 1
        }
      }
    }
  ],
  "meshes": [
    {
      "name": "Object_0",
      "primitives": [
        {
          "attributes": {
            "NORMAL": 1,
            "POSITION": 0,
            "TANGENT": 2,
            "TEXCOORD_0": 3,
            "TEXCOORD_1": 4,
            "TEXCOORD_2": 5,
            "TEXCOORD_3": 6
          },
          "indices": 7,
          "material": 0,
          "mode": 4
        }
      ]
    }
  ],
  "nodes": [
    {
      "children": [
        1
      ],
      "matrix": [
        1.0,
        0.0,
        0.0,
        0.0,
        0.0,
        2.220446049250313e-16,
        -1.0,
        0.0,
        0.0,
        1.0,
        2.220446049250313e-16,
        0.0,
        0.0,
        0.0,
        0.0,
        1.0
      ],
      "name": "Sketchfab_model"
    },
    {
      "children": [
        2
      ],
      "name": "root"
    },
    {
      "children": [
        3
      ],
      "matrix": [
        1.0,
        0.0,
        0.0,
        0.0,
        0.0,
        2.220446049250313e-16,
        1.0,
        0.0,
        0.0,
        -1.0,
        2.220446049250313e-16,
        0.0,
        0.0,
        0.0,
        0.0,
        1.0
      ],
      "name": "GLTF_SceneRootNode"
    },
    {
      "children": [
        4
      ],
      "name": "Mesh0_0"
    },
    {
      "mesh": 0,
      "name": "Object_4"
    }
  ],
  "samplers": [
    {
      "magFilter": 9729,
      "minFilter": 9987,
      "wrapS": 10497,
      "wrapT": 10497
    }
  ],
  "scene": 0,
  "scenes": [
    {
      "name": "Sketchfab_Scene",
      "nodes": [
        0
      ]
    }
  ],
  "textures": [
    {
      "sampler": 0,
      "source": 0
    },
    {
      "sampler": 0,
      "source": 1
    },
    {
      "sampler": 0,
      "source": 2
    }
  ]
}
